<?xml version="1.0" encoding="UTF-8" standalone="no"?>
<!DOCTYPE svg PUBLIC "-//W3C//DTD SVG 1.1//EN"
 "http://www.w3.org/Graphics/SVG/1.1/DTD/svg11.dtd">
<!-- Generated by graphviz version 5.0.0 (20220707.1540)
 -->
<!-- Title: dependencies Pages: 1 -->
<svg width="365pt" height="247pt"
 viewBox="0.00 0.00 365.00 246.80" xmlns="http://www.w3.org/2000/svg" xmlns:xlink="http://www.w3.org/1999/xlink">
<g id="graph0" class="graph" transform="scale(1 1) rotate(0) translate(4 242.8)">
<title>dependencies</title>
<polygon fill="white" stroke="transparent" points="-4,4 -4,-242.8 361,-242.8 361,4 -4,4"/>
<text text-anchor="middle" x="178.5" y="-8.2" font-family="sans-serif" font-size="14.00">dependencies</text>
<g id="clust1" class="cluster">
<title>cluster_MovieDBModule</title>
<polygon fill="none" stroke="black" stroke-dasharray="1,5" points="8,-32.8 8,-230.8 349,-230.8 349,-32.8 8,-32.8"/>
</g>
<g id="clust6" class="cluster">
<title>cluster_MovieDBModule_providers</title>
<polygon fill="none" stroke="black" points="16,-40.8 16,-92.8 341,-92.8 341,-40.8 16,-40.8"/>
</g>
<g id="clust4" class="cluster">
<title>cluster_MovieDBModule_exports</title>
<polygon fill="none" stroke="black" points="105,-170.8 105,-222.8 239,-222.8 239,-170.8 105,-170.8"/>
</g>
<!-- MovieDBService  -->
<g id="node1" class="node">
<title>MovieDBService </title>
<polygon fill="#fb8072" stroke="black" points="230.98,-214.8 113.02,-214.8 113.02,-178.8 230.98,-178.8 230.98,-214.8"/>
<text text-anchor="middle" x="172" y="-192.6" font-family="Times,serif" font-size="14.00">MovieDBService </text>
</g>
<!-- MovieDBModule -->
<g id="node2" class="node">
<title>MovieDBModule</title>
<polygon fill="#8dd3c7" stroke="black" points="229.55,-149.8 226.55,-153.8 205.55,-153.8 202.55,-149.8 114.45,-149.8 114.45,-113.8 229.55,-113.8 229.55,-149.8"/>
<text text-anchor="middle" x="172" y="-127.6" font-family="Times,serif" font-size="14.00">MovieDBModule</text>
</g>
<!-- MovieDBModule&#45;&gt;MovieDBService  -->
<g id="edge1" class="edge">
<title>MovieDBModule&#45;&gt;MovieDBService </title>
<path fill="none" stroke="black" stroke-dasharray="5,2" d="M172,-149.91C172,-149.91 172,-168.79 172,-168.79"/>
<polygon fill="black" stroke="black" points="168.5,-168.79 172,-178.79 175.5,-168.79 168.5,-168.79"/>
</g>
<!-- MovieDBService -->
<g id="node3" class="node">
<title>MovieDBService</title>
<ellipse fill="#fdb462" stroke="black" cx="254" cy="-66.8" rx="78.74" ry="18"/>
<text text-anchor="middle" x="254" y="-62.6" font-family="Times,serif" font-size="14.00">MovieDBService</text>
</g>
<!-- MovieDBService&#45;&gt;MovieDBModule -->
<g id="edge2" class="edge">
<title>MovieDBService&#45;&gt;MovieDBModule</title>
<path fill="none" stroke="black" d="M202.58,-80.58C202.58,-80.58 202.58,-103.35 202.58,-103.35"/>
<polygon fill="black" stroke="black" points="199.08,-103.35 202.58,-113.35 206.08,-103.35 199.08,-103.35"/>
</g>
<!-- PrismaService -->
<g id="node4" class="node">
<title>PrismaService</title>
<ellipse fill="#fdb462" stroke="black" cx="91" cy="-66.8" rx="66.64" ry="18"/>
<text text-anchor="middle" x="91" y="-62.6" font-family="Times,serif" font-size="14.00">PrismaService</text>
</g>
<!-- PrismaService&#45;&gt;MovieDBModule -->
<g id="edge3" class="edge">
<title>PrismaService&#45;&gt;MovieDBModule</title>
<path fill="none" stroke="black" d="M136.02,-80.27C136.02,-80.27 136.02,-103.66 136.02,-103.66"/>
<polygon fill="black" stroke="black" points="132.52,-103.66 136.02,-113.66 139.52,-103.66 132.52,-103.66"/>
</g>
</g>
</svg>
