<?xml version="1.0" encoding="UTF-8" standalone="no"?>
<!DOCTYPE svg PUBLIC "-//W3C//DTD SVG 1.1//EN"
 "http://www.w3.org/Graphics/SVG/1.1/DTD/svg11.dtd">
<!-- Generated by graphviz version 5.0.0 (20220707.1540)
 -->
<!-- Title: dependencies Pages: 1 -->
<svg width="1442pt" height="174pt"
 viewBox="0.00 0.00 1442.00 173.80" xmlns="http://www.w3.org/2000/svg" xmlns:xlink="http://www.w3.org/1999/xlink">
<g id="graph0" class="graph" transform="scale(1 1) rotate(0) translate(4 169.8)">
<title>dependencies</title>
<polygon fill="white" stroke="transparent" points="-4,4 -4,-169.8 1438,-169.8 1438,4 -4,4"/>
<text text-anchor="middle" x="717" y="-8.2" font-family="sans-serif" font-size="14.00">dependencies</text>
<g id="clust1" class="cluster">
<title>cluster_EventModule</title>
<polygon fill="none" stroke="black" stroke-dasharray="1,5" points="8,-32.8 8,-157.8 1426,-157.8 1426,-32.8 8,-32.8"/>
</g>
<g id="clust6" class="cluster">
<title>cluster_EventModule_providers</title>
<polygon fill="none" stroke="black" points="698,-40.8 698,-92.8 1418,-92.8 1418,-40.8 698,-40.8"/>
</g>
<g id="clust3" class="cluster">
<title>cluster_EventModule_imports</title>
<polygon fill="none" stroke="black" points="16,-40.8 16,-92.8 690,-92.8 690,-40.8 16,-40.8"/>
</g>
<!-- HistoryDBModule -->
<g id="node1" class="node">
<title>HistoryDBModule</title>
<polygon fill="#8dd3c7" stroke="black" points="681.5,-84.8 678.5,-88.8 657.5,-88.8 654.5,-84.8 560.5,-84.8 560.5,-48.8 681.5,-48.8 681.5,-84.8"/>
<text text-anchor="middle" x="621" y="-62.6" font-family="Times,serif" font-size="14.00">HistoryDBModule</text>
</g>
<!-- EventModule -->
<g id="node6" class="node">
<title>EventModule</title>
<polygon fill="#8dd3c7" stroke="black" points="742.21,-149.8 739.21,-153.8 718.21,-153.8 715.21,-149.8 649.79,-149.8 649.79,-113.8 742.21,-113.8 742.21,-149.8"/>
<text text-anchor="middle" x="696" y="-127.6" font-family="Times,serif" font-size="14.00">EventModule</text>
</g>
<!-- HistoryDBModule&#45;&gt;EventModule -->
<g id="edge1" class="edge">
<title>HistoryDBModule&#45;&gt;EventModule</title>
<path fill="none" stroke="black" d="M665.7,-84.91C665.7,-84.91 665.7,-103.79 665.7,-103.79"/>
<polygon fill="black" stroke="black" points="662.2,-103.79 665.7,-113.79 669.2,-103.79 662.2,-103.79"/>
</g>
<!-- MovieDBModule -->
<g id="node2" class="node">
<title>MovieDBModule</title>
<polygon fill="#8dd3c7" stroke="black" points="542.55,-84.8 539.55,-88.8 518.55,-88.8 515.55,-84.8 427.45,-84.8 427.45,-48.8 542.55,-48.8 542.55,-84.8"/>
<text text-anchor="middle" x="485" y="-62.6" font-family="Times,serif" font-size="14.00">MovieDBModule</text>
</g>
<!-- MovieDBModule&#45;&gt;EventModule -->
<g id="edge2" class="edge">
<title>MovieDBModule&#45;&gt;EventModule</title>
<path fill="none" stroke="black" d="M485,-84.81C485,-100.85 485,-121.8 485,-121.8 485,-121.8 639.7,-121.8 639.7,-121.8"/>
<polygon fill="black" stroke="black" points="639.7,-125.3 649.7,-121.8 639.7,-118.3 639.7,-125.3"/>
</g>
<!-- UserDBModule -->
<g id="node3" class="node">
<title>UserDBModule</title>
<polygon fill="#8dd3c7" stroke="black" points="409.94,-84.8 406.94,-88.8 385.94,-88.8 382.94,-84.8 304.06,-84.8 304.06,-48.8 409.94,-48.8 409.94,-84.8"/>
<text text-anchor="middle" x="357" y="-62.6" font-family="Times,serif" font-size="14.00">UserDBModule</text>
</g>
<!-- UserDBModule&#45;&gt;EventModule -->
<g id="edge3" class="edge">
<title>UserDBModule&#45;&gt;EventModule</title>
<path fill="none" stroke="black" d="M357,-85.07C357,-103.36 357,-128.8 357,-128.8 357,-128.8 639.57,-128.8 639.57,-128.8"/>
<polygon fill="black" stroke="black" points="639.57,-132.3 649.57,-128.8 639.57,-125.3 639.57,-132.3"/>
</g>
<!-- VoteDBModule -->
<g id="node4" class="node">
<title>VoteDBModule</title>
<polygon fill="#8dd3c7" stroke="black" points="286.21,-84.8 283.21,-88.8 262.21,-88.8 259.21,-84.8 179.79,-84.8 179.79,-48.8 286.21,-48.8 286.21,-84.8"/>
<text text-anchor="middle" x="233" y="-62.6" font-family="Times,serif" font-size="14.00">VoteDBModule</text>
</g>
<!-- VoteDBModule&#45;&gt;EventModule -->
<g id="edge4" class="edge">
<title>VoteDBModule&#45;&gt;EventModule</title>
<path fill="none" stroke="black" d="M233,-84.93C233,-105.37 233,-135.8 233,-135.8 233,-135.8 639.49,-135.8 639.49,-135.8"/>
<polygon fill="black" stroke="black" points="639.49,-139.3 649.49,-135.8 639.49,-132.3 639.49,-139.3"/>
</g>
<!-- WatchListDBModule -->
<g id="node5" class="node">
<title>WatchListDBModule</title>
<polygon fill="#8dd3c7" stroke="black" points="161.81,-84.8 158.81,-88.8 137.81,-88.8 134.81,-84.8 24.19,-84.8 24.19,-48.8 161.81,-48.8 161.81,-84.8"/>
<text text-anchor="middle" x="93" y="-62.6" font-family="Times,serif" font-size="14.00">WatchListDBModule</text>
</g>
<!-- WatchListDBModule&#45;&gt;EventModule -->
<g id="edge5" class="edge">
<title>WatchListDBModule&#45;&gt;EventModule</title>
<path fill="none" stroke="black" d="M93,-84.81C93,-107.29 93,-142.8 93,-142.8 93,-142.8 639.68,-142.8 639.68,-142.8"/>
<polygon fill="black" stroke="black" points="639.68,-146.3 649.68,-142.8 639.68,-139.3 639.68,-146.3"/>
</g>
<!-- AnnounceJob -->
<g id="node7" class="node">
<title>AnnounceJob</title>
<ellipse fill="#fdb462" stroke="black" cx="1346" cy="-66.8" rx="64.28" ry="18"/>
<text text-anchor="middle" x="1346" y="-62.6" font-family="Times,serif" font-size="14.00">AnnounceJob</text>
</g>
<!-- AnnounceJob&#45;&gt;EventModule -->
<g id="edge6" class="edge">
<title>AnnounceJob&#45;&gt;EventModule</title>
<path fill="none" stroke="black" d="M1346,-84.81C1346,-107.29 1346,-142.8 1346,-142.8 1346,-142.8 752.23,-142.8 752.23,-142.8"/>
<polygon fill="black" stroke="black" points="752.23,-139.3 742.23,-142.8 752.23,-146.3 752.23,-139.3"/>
</g>
<!-- DiscordService -->
<g id="node8" class="node">
<title>DiscordService</title>
<ellipse fill="#fdb462" stroke="black" cx="1193" cy="-66.8" rx="70.63" ry="18"/>
<text text-anchor="middle" x="1193" y="-62.6" font-family="Times,serif" font-size="14.00">DiscordService</text>
</g>
<!-- DiscordService&#45;&gt;EventModule -->
<g id="edge7" class="edge">
<title>DiscordService&#45;&gt;EventModule</title>
<path fill="none" stroke="black" d="M1193,-84.93C1193,-105.37 1193,-135.8 1193,-135.8 1193,-135.8 752.31,-135.8 752.31,-135.8"/>
<polygon fill="black" stroke="black" points="752.31,-132.3 742.31,-135.8 752.31,-139.3 752.31,-132.3"/>
</g>
<!-- EmailService -->
<g id="node9" class="node">
<title>EmailService</title>
<ellipse fill="#fdb462" stroke="black" cx="1041" cy="-66.8" rx="63.11" ry="18"/>
<text text-anchor="middle" x="1041" y="-62.6" font-family="Times,serif" font-size="14.00">EmailService</text>
</g>
<!-- EmailService&#45;&gt;EventModule -->
<g id="edge8" class="edge">
<title>EmailService&#45;&gt;EventModule</title>
<path fill="none" stroke="black" d="M1041,-85.07C1041,-103.36 1041,-128.8 1041,-128.8 1041,-128.8 752.17,-128.8 752.17,-128.8"/>
<polygon fill="black" stroke="black" points="752.17,-125.3 742.17,-128.8 752.17,-132.3 752.17,-125.3"/>
</g>
<!-- HistoryJob -->
<g id="node10" class="node">
<title>HistoryJob</title>
<ellipse fill="#fdb462" stroke="black" cx="907" cy="-66.8" rx="53.34" ry="18"/>
<text text-anchor="middle" x="907" y="-62.6" font-family="Times,serif" font-size="14.00">HistoryJob</text>
</g>
<!-- HistoryJob&#45;&gt;EventModule -->
<g id="edge9" class="edge">
<title>HistoryJob&#45;&gt;EventModule</title>
<path fill="none" stroke="black" d="M907,-84.81C907,-100.85 907,-121.8 907,-121.8 907,-121.8 752.3,-121.8 752.3,-121.8"/>
<polygon fill="black" stroke="black" points="752.3,-118.3 742.3,-121.8 752.3,-125.3 752.3,-118.3"/>
</g>
<!-- WatchListJob -->
<g id="node11" class="node">
<title>WatchListJob</title>
<ellipse fill="#fdb462" stroke="black" cx="771" cy="-66.8" rx="64.85" ry="18"/>
<text text-anchor="middle" x="771" y="-62.6" font-family="Times,serif" font-size="14.00">WatchListJob</text>
</g>
<!-- WatchListJob&#45;&gt;EventModule -->
<g id="edge10" class="edge">
<title>WatchListJob&#45;&gt;EventModule</title>
<path fill="none" stroke="black" d="M724.22,-79.33C724.22,-79.33 724.22,-103.65 724.22,-103.65"/>
<polygon fill="black" stroke="black" points="720.72,-103.65 724.22,-113.65 727.72,-103.65 720.72,-103.65"/>
</g>
</g>
</svg>
