<?xml version="1.0" encoding="UTF-8" standalone="no"?>
<!DOCTYPE svg PUBLIC "-//W3C//DTD SVG 1.1//EN"
 "http://www.w3.org/Graphics/SVG/1.1/DTD/svg11.dtd">
<!-- Generated by graphviz version 5.0.0 (20220707.1540)
 -->
<!-- Title: dependencies Pages: 1 -->
<svg width="1197pt" height="174pt"
 viewBox="0.00 0.00 1197.00 173.80" xmlns="http://www.w3.org/2000/svg" xmlns:xlink="http://www.w3.org/1999/xlink">
<g id="graph0" class="graph" transform="scale(1 1) rotate(0) translate(4 169.8)">
<title>dependencies</title>
<polygon fill="white" stroke="transparent" points="-4,4 -4,-169.8 1193,-169.8 1193,4 -4,4"/>
<text text-anchor="middle" x="594.5" y="-8.2" font-family="sans-serif" font-size="14.00">dependencies</text>
<g id="clust1" class="cluster">
<title>cluster_UserModule</title>
<polygon fill="none" stroke="black" stroke-dasharray="1,5" points="8,-32.8 8,-157.8 1181,-157.8 1181,-32.8 8,-32.8"/>
</g>
<g id="clust3" class="cluster">
<title>cluster_UserModule_imports</title>
<polygon fill="none" stroke="black" points="638,-40.8 638,-92.8 1173,-92.8 1173,-40.8 638,-40.8"/>
</g>
<g id="clust6" class="cluster">
<title>cluster_UserModule_providers</title>
<polygon fill="none" stroke="black" points="16,-40.8 16,-92.8 630,-92.8 630,-40.8 16,-40.8"/>
</g>
<!-- MovieDBModule -->
<g id="node1" class="node">
<title>MovieDBModule</title>
<polygon fill="#8dd3c7" stroke="black" points="1164.55,-84.8 1161.55,-88.8 1140.55,-88.8 1137.55,-84.8 1049.45,-84.8 1049.45,-48.8 1164.55,-48.8 1164.55,-84.8"/>
<text text-anchor="middle" x="1107" y="-62.6" font-family="Times,serif" font-size="14.00">MovieDBModule</text>
</g>
<!-- UserModule -->
<g id="node5" class="node">
<title>UserModule</title>
<polygon fill="#8dd3c7" stroke="black" points="679.99,-149.8 676.99,-153.8 655.99,-153.8 652.99,-149.8 594.01,-149.8 594.01,-113.8 679.99,-113.8 679.99,-149.8"/>
<text text-anchor="middle" x="637" y="-127.6" font-family="Times,serif" font-size="14.00">UserModule</text>
</g>
<!-- MovieDBModule&#45;&gt;UserModule -->
<g id="edge1" class="edge">
<title>MovieDBModule&#45;&gt;UserModule</title>
<path fill="none" stroke="black" d="M1107,-85.09C1107,-107.01 1107,-140.8 1107,-140.8 1107,-140.8 690.37,-140.8 690.37,-140.8"/>
<polygon fill="black" stroke="black" points="690.37,-137.3 680.37,-140.8 690.37,-144.3 690.37,-137.3"/>
</g>
<!-- UserDBModule -->
<g id="node2" class="node">
<title>UserDBModule</title>
<polygon fill="#8dd3c7" stroke="black" points="1031.94,-84.8 1028.94,-88.8 1007.94,-88.8 1004.94,-84.8 926.06,-84.8 926.06,-48.8 1031.94,-48.8 1031.94,-84.8"/>
<text text-anchor="middle" x="979" y="-62.6" font-family="Times,serif" font-size="14.00">UserDBModule</text>
</g>
<!-- UserDBModule&#45;&gt;UserModule -->
<g id="edge2" class="edge">
<title>UserDBModule&#45;&gt;UserModule</title>
<path fill="none" stroke="black" d="M979,-84.91C979,-104.14 979,-131.8 979,-131.8 979,-131.8 690.31,-131.8 690.31,-131.8"/>
<polygon fill="black" stroke="black" points="690.31,-128.3 680.31,-131.8 690.31,-135.3 690.31,-128.3"/>
</g>
<!-- VoteDBModule -->
<g id="node3" class="node">
<title>VoteDBModule</title>
<polygon fill="#8dd3c7" stroke="black" points="908.21,-84.8 905.21,-88.8 884.21,-88.8 881.21,-84.8 801.79,-84.8 801.79,-48.8 908.21,-48.8 908.21,-84.8"/>
<text text-anchor="middle" x="855" y="-62.6" font-family="Times,serif" font-size="14.00">VoteDBModule</text>
</g>
<!-- VoteDBModule&#45;&gt;UserModule -->
<g id="edge3" class="edge">
<title>VoteDBModule&#45;&gt;UserModule</title>
<path fill="none" stroke="black" d="M855,-84.83C855,-101.2 855,-122.8 855,-122.8 855,-122.8 690.07,-122.8 690.07,-122.8"/>
<polygon fill="black" stroke="black" points="690.07,-119.3 680.07,-122.8 690.07,-126.3 690.07,-119.3"/>
</g>
<!-- WatchListDBModule -->
<g id="node4" class="node">
<title>WatchListDBModule</title>
<polygon fill="#8dd3c7" stroke="black" points="783.81,-84.8 780.81,-88.8 759.81,-88.8 756.81,-84.8 646.19,-84.8 646.19,-48.8 783.81,-48.8 783.81,-84.8"/>
<text text-anchor="middle" x="715" y="-62.6" font-family="Times,serif" font-size="14.00">WatchListDBModule</text>
</g>
<!-- WatchListDBModule&#45;&gt;UserModule -->
<g id="edge4" class="edge">
<title>WatchListDBModule&#45;&gt;UserModule</title>
<path fill="none" stroke="black" d="M663.17,-84.91C663.17,-84.91 663.17,-103.79 663.17,-103.79"/>
<polygon fill="black" stroke="black" points="659.67,-103.79 663.17,-113.79 666.67,-103.79 659.67,-103.79"/>
</g>
<!-- EmailService -->
<g id="node6" class="node">
<title>EmailService</title>
<ellipse fill="#fdb462" stroke="black" cx="559" cy="-66.8" rx="63.11" ry="18"/>
<text text-anchor="middle" x="559" y="-62.6" font-family="Times,serif" font-size="14.00">EmailService</text>
</g>
<!-- EmailService&#45;&gt;UserModule -->
<g id="edge5" class="edge">
<title>EmailService&#45;&gt;UserModule</title>
<path fill="none" stroke="black" d="M608.03,-78.12C608.03,-78.12 608.03,-103.74 608.03,-103.74"/>
<polygon fill="black" stroke="black" points="604.53,-103.74 608.03,-113.74 611.53,-103.74 604.53,-103.74"/>
</g>
<!-- GravatarService -->
<g id="node7" class="node">
<title>GravatarService</title>
<ellipse fill="#fdb462" stroke="black" cx="404" cy="-66.8" rx="73.54" ry="18"/>
<text text-anchor="middle" x="404" y="-62.6" font-family="Times,serif" font-size="14.00">GravatarService</text>
</g>
<!-- GravatarService&#45;&gt;UserModule -->
<g id="edge6" class="edge">
<title>GravatarService&#45;&gt;UserModule</title>
<path fill="none" stroke="black" d="M404,-84.83C404,-101.2 404,-122.8 404,-122.8 404,-122.8 583.99,-122.8 583.99,-122.8"/>
<polygon fill="black" stroke="black" points="583.99,-126.3 593.99,-122.8 583.99,-119.3 583.99,-126.3"/>
</g>
<!-- PasswordService -->
<g id="node8" class="node">
<title>PasswordService</title>
<ellipse fill="#fdb462" stroke="black" cx="235" cy="-66.8" rx="77.03" ry="18"/>
<text text-anchor="middle" x="235" y="-62.6" font-family="Times,serif" font-size="14.00">PasswordService</text>
</g>
<!-- PasswordService&#45;&gt;UserModule -->
<g id="edge7" class="edge">
<title>PasswordService&#45;&gt;UserModule</title>
<path fill="none" stroke="black" d="M235,-84.91C235,-104.14 235,-131.8 235,-131.8 235,-131.8 583.98,-131.8 583.98,-131.8"/>
<polygon fill="black" stroke="black" points="583.98,-135.3 593.98,-131.8 583.98,-128.3 583.98,-135.3"/>
</g>
<!-- UserService -->
<g id="node9" class="node">
<title>UserService</title>
<ellipse fill="#fdb462" stroke="black" cx="82" cy="-66.8" rx="58.46" ry="18"/>
<text text-anchor="middle" x="82" y="-62.6" font-family="Times,serif" font-size="14.00">UserService</text>
</g>
<!-- UserService&#45;&gt;UserModule -->
<g id="edge8" class="edge">
<title>UserService&#45;&gt;UserModule</title>
<path fill="none" stroke="black" d="M82,-85.09C82,-107.01 82,-140.8 82,-140.8 82,-140.8 583.91,-140.8 583.91,-140.8"/>
<polygon fill="black" stroke="black" points="583.91,-144.3 593.91,-140.8 583.91,-137.3 583.91,-144.3"/>
</g>
</g>
</svg>
