<?xml version="1.0" encoding="UTF-8" standalone="no"?>
<!DOCTYPE svg PUBLIC "-//W3C//DTD SVG 1.1//EN"
 "http://www.w3.org/Graphics/SVG/1.1/DTD/svg11.dtd">
<!-- Generated by graphviz version 5.0.0 (20220707.1540)
 -->
<!-- Title: dependencies Pages: 1 -->
<svg width="900pt" height="174pt"
 viewBox="0.00 0.00 900.00 173.80" xmlns="http://www.w3.org/2000/svg" xmlns:xlink="http://www.w3.org/1999/xlink">
<g id="graph0" class="graph" transform="scale(1 1) rotate(0) translate(4 169.8)">
<title>dependencies</title>
<polygon fill="white" stroke="transparent" points="-4,4 -4,-169.8 896,-169.8 896,4 -4,4"/>
<text text-anchor="middle" x="446" y="-8.2" font-family="sans-serif" font-size="14.00">dependencies</text>
<g id="clust1" class="cluster">
<title>cluster_AuthModule</title>
<polygon fill="none" stroke="black" stroke-dasharray="1,5" points="8,-32.8 8,-157.8 884,-157.8 884,-32.8 8,-32.8"/>
</g>
<g id="clust6" class="cluster">
<title>cluster_AuthModule_providers</title>
<polygon fill="none" stroke="black" points="146,-40.8 146,-92.8 876,-92.8 876,-40.8 146,-40.8"/>
</g>
<g id="clust3" class="cluster">
<title>cluster_AuthModule_imports</title>
<polygon fill="none" stroke="black" points="16,-40.8 16,-92.8 138,-92.8 138,-40.8 16,-40.8"/>
</g>
<!-- UserDBModule -->
<g id="node1" class="node">
<title>UserDBModule</title>
<polygon fill="#8dd3c7" stroke="black" points="129.94,-84.8 126.94,-88.8 105.94,-88.8 102.94,-84.8 24.06,-84.8 24.06,-48.8 129.94,-48.8 129.94,-84.8"/>
<text text-anchor="middle" x="77" y="-62.6" font-family="Times,serif" font-size="14.00">UserDBModule</text>
</g>
<!-- AuthModule -->
<g id="node2" class="node">
<title>AuthModule</title>
<polygon fill="#8dd3c7" stroke="black" points="504.55,-149.8 501.55,-153.8 480.55,-153.8 477.55,-149.8 417.45,-149.8 417.45,-113.8 504.55,-113.8 504.55,-149.8"/>
<text text-anchor="middle" x="461" y="-127.6" font-family="Times,serif" font-size="14.00">AuthModule</text>
</g>
<!-- UserDBModule&#45;&gt;AuthModule -->
<g id="edge1" class="edge">
<title>UserDBModule&#45;&gt;AuthModule</title>
<path fill="none" stroke="black" d="M77,-85.08C77,-106.12 77,-137.8 77,-137.8 77,-137.8 407.32,-137.8 407.32,-137.8"/>
<polygon fill="black" stroke="black" points="407.32,-141.3 417.32,-137.8 407.32,-134.3 407.32,-141.3"/>
</g>
<!-- AuthService -->
<g id="node3" class="node">
<title>AuthService</title>
<ellipse fill="#fdb462" stroke="black" cx="809" cy="-66.8" rx="59.11" ry="18"/>
<text text-anchor="middle" x="809" y="-62.6" font-family="Times,serif" font-size="14.00">AuthService</text>
</g>
<!-- AuthService&#45;&gt;AuthModule -->
<g id="edge2" class="edge">
<title>AuthService&#45;&gt;AuthModule</title>
<path fill="none" stroke="black" d="M809,-85.08C809,-106.12 809,-137.8 809,-137.8 809,-137.8 514.72,-137.8 514.72,-137.8"/>
<polygon fill="black" stroke="black" points="514.72,-134.3 504.72,-137.8 514.72,-141.3 514.72,-134.3"/>
</g>
<!-- EmailService -->
<g id="node4" class="node">
<title>EmailService</title>
<ellipse fill="#fdb462" stroke="black" cx="669" cy="-66.8" rx="63.11" ry="18"/>
<text text-anchor="middle" x="669" y="-62.6" font-family="Times,serif" font-size="14.00">EmailService</text>
</g>
<!-- EmailService&#45;&gt;AuthModule -->
<g id="edge3" class="edge">
<title>EmailService&#45;&gt;AuthModule</title>
<path fill="none" stroke="black" d="M669,-84.82C669,-102.17 669,-125.8 669,-125.8 669,-125.8 514.6,-125.8 514.6,-125.8"/>
<polygon fill="black" stroke="black" points="514.6,-122.3 504.6,-125.8 514.6,-129.3 514.6,-122.3"/>
</g>
<!-- JwtStrategy -->
<g id="node5" class="node">
<title>JwtStrategy</title>
<ellipse fill="#fdb462" stroke="black" cx="531" cy="-66.8" rx="56.77" ry="18"/>
<text text-anchor="middle" x="531" y="-62.6" font-family="Times,serif" font-size="14.00">JwtStrategy</text>
</g>
<!-- JwtStrategy&#45;&gt;AuthModule -->
<g id="edge4" class="edge">
<title>JwtStrategy&#45;&gt;AuthModule</title>
<path fill="none" stroke="black" d="M489.57,-79.33C489.57,-79.33 489.57,-103.65 489.57,-103.65"/>
<polygon fill="black" stroke="black" points="486.07,-103.65 489.57,-113.65 493.07,-103.65 486.07,-103.65"/>
</g>
<!-- LocalStrategy -->
<g id="node6" class="node">
<title>LocalStrategy</title>
<ellipse fill="#fdb462" stroke="black" cx="391" cy="-66.8" rx="65.4" ry="18"/>
<text text-anchor="middle" x="391" y="-62.6" font-family="Times,serif" font-size="14.00">LocalStrategy</text>
</g>
<!-- LocalStrategy&#45;&gt;AuthModule -->
<g id="edge5" class="edge">
<title>LocalStrategy&#45;&gt;AuthModule</title>
<path fill="none" stroke="black" d="M436.71,-79.64C436.71,-79.64 436.71,-103.32 436.71,-103.32"/>
<polygon fill="black" stroke="black" points="433.21,-103.32 436.71,-113.32 440.21,-103.32 433.21,-103.32"/>
</g>
<!-- PasswordService -->
<g id="node7" class="node">
<title>PasswordService</title>
<ellipse fill="#fdb462" stroke="black" cx="231" cy="-66.8" rx="77.03" ry="18"/>
<text text-anchor="middle" x="231" y="-62.6" font-family="Times,serif" font-size="14.00">PasswordService</text>
</g>
<!-- PasswordService&#45;&gt;AuthModule -->
<g id="edge6" class="edge">
<title>PasswordService&#45;&gt;AuthModule</title>
<path fill="none" stroke="black" d="M231,-84.82C231,-102.17 231,-125.8 231,-125.8 231,-125.8 407.2,-125.8 407.2,-125.8"/>
<polygon fill="black" stroke="black" points="407.2,-129.3 417.2,-125.8 407.2,-122.3 407.2,-129.3"/>
</g>
</g>
</svg>
