<?xml version="1.0" encoding="UTF-8" standalone="no"?>
<!DOCTYPE svg PUBLIC "-//W3C//DTD SVG 1.1//EN"
 "http://www.w3.org/Graphics/SVG/1.1/DTD/svg11.dtd">
<!-- Generated by graphviz version 5.0.0 (20220707.1540)
 -->
<!-- Title: dependencies Pages: 1 -->
<svg width="395pt" height="247pt"
 viewBox="0.00 0.00 395.00 246.80" xmlns="http://www.w3.org/2000/svg" xmlns:xlink="http://www.w3.org/1999/xlink">
<g id="graph0" class="graph" transform="scale(1 1) rotate(0) translate(4 242.8)">
<title>dependencies</title>
<polygon fill="white" stroke="transparent" points="-4,4 -4,-242.8 391,-242.8 391,4 -4,4"/>
<text text-anchor="middle" x="193.5" y="-8.2" font-family="sans-serif" font-size="14.00">dependencies</text>
<g id="clust1" class="cluster">
<title>cluster_WatchListDBModule</title>
<polygon fill="none" stroke="black" stroke-dasharray="1,5" points="8,-32.8 8,-230.8 379,-230.8 379,-32.8 8,-32.8"/>
</g>
<g id="clust4" class="cluster">
<title>cluster_WatchListDBModule_exports</title>
<polygon fill="none" stroke="black" points="127,-170.8 127,-222.8 283,-222.8 283,-170.8 127,-170.8"/>
</g>
<g id="clust6" class="cluster">
<title>cluster_WatchListDBModule_providers</title>
<polygon fill="none" stroke="black" points="16,-40.8 16,-92.8 371,-92.8 371,-40.8 16,-40.8"/>
</g>
<!-- WatchListDBService  -->
<g id="node1" class="node">
<title>WatchListDBService </title>
<polygon fill="#fb8072" stroke="black" points="274.74,-214.8 135.26,-214.8 135.26,-178.8 274.74,-178.8 274.74,-214.8"/>
<text text-anchor="middle" x="205" y="-192.6" font-family="Times,serif" font-size="14.00">WatchListDBService </text>
</g>
<!-- WatchListDBModule -->
<g id="node2" class="node">
<title>WatchListDBModule</title>
<polygon fill="#8dd3c7" stroke="black" points="273.81,-149.8 270.81,-153.8 249.81,-153.8 246.81,-149.8 136.19,-149.8 136.19,-113.8 273.81,-113.8 273.81,-149.8"/>
<text text-anchor="middle" x="205" y="-127.6" font-family="Times,serif" font-size="14.00">WatchListDBModule</text>
</g>
<!-- WatchListDBModule&#45;&gt;WatchListDBService  -->
<g id="edge1" class="edge">
<title>WatchListDBModule&#45;&gt;WatchListDBService </title>
<path fill="none" stroke="black" stroke-dasharray="5,2" d="M205,-149.91C205,-149.91 205,-168.79 205,-168.79"/>
<polygon fill="black" stroke="black" points="201.5,-168.79 205,-178.79 208.5,-168.79 201.5,-168.79"/>
</g>
<!-- PrismaService -->
<g id="node3" class="node">
<title>PrismaService</title>
<ellipse fill="#fdb462" stroke="black" cx="296" cy="-66.8" rx="66.64" ry="18"/>
<text text-anchor="middle" x="296" y="-62.6" font-family="Times,serif" font-size="14.00">PrismaService</text>
</g>
<!-- PrismaService&#45;&gt;WatchListDBModule -->
<g id="edge2" class="edge">
<title>PrismaService&#45;&gt;WatchListDBModule</title>
<path fill="none" stroke="black" d="M251.42,-80.27C251.42,-80.27 251.42,-103.66 251.42,-103.66"/>
<polygon fill="black" stroke="black" points="247.92,-103.66 251.42,-113.66 254.92,-103.66 247.92,-103.66"/>
</g>
<!-- WatchListDBService -->
<g id="node4" class="node">
<title>WatchListDBService</title>
<ellipse fill="#fdb462" stroke="black" cx="118" cy="-66.8" rx="93.76" ry="18"/>
<text text-anchor="middle" x="118" y="-62.6" font-family="Times,serif" font-size="14.00">WatchListDBService</text>
</g>
<!-- WatchListDBService&#45;&gt;WatchListDBModule -->
<g id="edge3" class="edge">
<title>WatchListDBService&#45;&gt;WatchListDBModule</title>
<path fill="none" stroke="black" d="M173.99,-81.55C173.99,-81.55 173.99,-103.39 173.99,-103.39"/>
<polygon fill="black" stroke="black" points="170.49,-103.39 173.99,-113.39 177.49,-103.39 170.49,-103.39"/>
</g>
</g>
</svg>
