<?xml version="1.0" encoding="UTF-8" standalone="no"?>
<!DOCTYPE svg PUBLIC "-//W3C//DTD SVG 1.1//EN"
 "http://www.w3.org/Graphics/SVG/1.1/DTD/svg11.dtd">
<!-- Generated by graphviz version 5.0.0 (20220707.1540)
 -->
<!-- Title: dependencies Pages: 1 -->
<svg width="713pt" height="174pt"
 viewBox="0.00 0.00 713.00 173.80" xmlns="http://www.w3.org/2000/svg" xmlns:xlink="http://www.w3.org/1999/xlink">
<g id="graph0" class="graph" transform="scale(1 1) rotate(0) translate(4 169.8)">
<title>dependencies</title>
<polygon fill="white" stroke="transparent" points="-4,4 -4,-169.8 709,-169.8 709,4 -4,4"/>
<text text-anchor="middle" x="352.5" y="-8.2" font-family="sans-serif" font-size="14.00">dependencies</text>
<g id="clust1" class="cluster">
<title>cluster_VoteModule</title>
<polygon fill="none" stroke="black" stroke-dasharray="1,5" points="8,-32.8 8,-157.8 697,-157.8 697,-32.8 8,-32.8"/>
</g>
<g id="clust6" class="cluster">
<title>cluster_VoteModule_providers</title>
<polygon fill="none" stroke="black" points="403,-40.8 403,-92.8 689,-92.8 689,-40.8 403,-40.8"/>
</g>
<g id="clust3" class="cluster">
<title>cluster_VoteModule_imports</title>
<polygon fill="none" stroke="black" points="16,-40.8 16,-92.8 395,-92.8 395,-40.8 16,-40.8"/>
</g>
<!-- MovieDBModule -->
<g id="node1" class="node">
<title>MovieDBModule</title>
<polygon fill="#8dd3c7" stroke="black" points="386.55,-84.8 383.55,-88.8 362.55,-88.8 359.55,-84.8 271.45,-84.8 271.45,-48.8 386.55,-48.8 386.55,-84.8"/>
<text text-anchor="middle" x="329" y="-62.6" font-family="Times,serif" font-size="14.00">MovieDBModule</text>
</g>
<!-- VoteModule -->
<g id="node4" class="node">
<title>VoteModule</title>
<polygon fill="#8dd3c7" stroke="black" points="372.27,-149.8 369.27,-153.8 348.27,-153.8 345.27,-149.8 285.73,-149.8 285.73,-113.8 372.27,-113.8 372.27,-149.8"/>
<text text-anchor="middle" x="329" y="-127.6" font-family="Times,serif" font-size="14.00">VoteModule</text>
</g>
<!-- MovieDBModule&#45;&gt;VoteModule -->
<g id="edge1" class="edge">
<title>MovieDBModule&#45;&gt;VoteModule</title>
<path fill="none" stroke="black" d="M329,-84.91C329,-84.91 329,-103.79 329,-103.79"/>
<polygon fill="black" stroke="black" points="325.5,-103.79 329,-113.79 332.5,-103.79 325.5,-103.79"/>
</g>
<!-- UserDBModule -->
<g id="node2" class="node">
<title>UserDBModule</title>
<polygon fill="#8dd3c7" stroke="black" points="253.94,-84.8 250.94,-88.8 229.94,-88.8 226.94,-84.8 148.06,-84.8 148.06,-48.8 253.94,-48.8 253.94,-84.8"/>
<text text-anchor="middle" x="201" y="-62.6" font-family="Times,serif" font-size="14.00">UserDBModule</text>
</g>
<!-- UserDBModule&#45;&gt;VoteModule -->
<g id="edge2" class="edge">
<title>UserDBModule&#45;&gt;VoteModule</title>
<path fill="none" stroke="black" d="M201,-84.82C201,-102.17 201,-125.8 201,-125.8 201,-125.8 275.67,-125.8 275.67,-125.8"/>
<polygon fill="black" stroke="black" points="275.67,-129.3 285.67,-125.8 275.67,-122.3 275.67,-129.3"/>
</g>
<!-- VoteDBModule -->
<g id="node3" class="node">
<title>VoteDBModule</title>
<polygon fill="#8dd3c7" stroke="black" points="130.21,-84.8 127.21,-88.8 106.21,-88.8 103.21,-84.8 23.79,-84.8 23.79,-48.8 130.21,-48.8 130.21,-84.8"/>
<text text-anchor="middle" x="77" y="-62.6" font-family="Times,serif" font-size="14.00">VoteDBModule</text>
</g>
<!-- VoteDBModule&#45;&gt;VoteModule -->
<g id="edge3" class="edge">
<title>VoteDBModule&#45;&gt;VoteModule</title>
<path fill="none" stroke="black" d="M77,-85.08C77,-106.12 77,-137.8 77,-137.8 77,-137.8 275.68,-137.8 275.68,-137.8"/>
<polygon fill="black" stroke="black" points="275.68,-141.3 285.68,-137.8 275.68,-134.3 275.68,-141.3"/>
</g>
<!-- PrismaService -->
<g id="node5" class="node">
<title>PrismaService</title>
<ellipse fill="#fdb462" stroke="black" cx="614" cy="-66.8" rx="66.64" ry="18"/>
<text text-anchor="middle" x="614" y="-62.6" font-family="Times,serif" font-size="14.00">PrismaService</text>
</g>
<!-- PrismaService&#45;&gt;VoteModule -->
<g id="edge4" class="edge">
<title>PrismaService&#45;&gt;VoteModule</title>
<path fill="none" stroke="black" d="M614,-85.08C614,-106.12 614,-137.8 614,-137.8 614,-137.8 382.29,-137.8 382.29,-137.8"/>
<polygon fill="black" stroke="black" points="382.29,-134.3 372.29,-137.8 382.29,-141.3 382.29,-134.3"/>
</g>
<!-- VoteService -->
<g id="node6" class="node">
<title>VoteService</title>
<ellipse fill="#fdb462" stroke="black" cx="470" cy="-66.8" rx="58.53" ry="18"/>
<text text-anchor="middle" x="470" y="-62.6" font-family="Times,serif" font-size="14.00">VoteService</text>
</g>
<!-- VoteService&#45;&gt;VoteModule -->
<g id="edge5" class="edge">
<title>VoteService&#45;&gt;VoteModule</title>
<path fill="none" stroke="black" d="M470,-84.82C470,-102.17 470,-125.8 470,-125.8 470,-125.8 382.46,-125.8 382.46,-125.8"/>
<polygon fill="black" stroke="black" points="382.46,-122.3 372.46,-125.8 382.46,-129.3 382.46,-122.3"/>
</g>
</g>
</svg>
