<?xml version="1.0" encoding="UTF-8" standalone="no"?>
<!DOCTYPE svg PUBLIC "-//W3C//DTD SVG 1.1//EN"
 "http://www.w3.org/Graphics/SVG/1.1/DTD/svg11.dtd">
<!-- Generated by graphviz version 5.0.0 (20220707.1540)
 -->
<!-- Title: dependencies Pages: 1 -->
<svg width="1156pt" height="174pt"
 viewBox="0.00 0.00 1156.00 173.80" xmlns="http://www.w3.org/2000/svg" xmlns:xlink="http://www.w3.org/1999/xlink">
<g id="graph0" class="graph" transform="scale(1 1) rotate(0) translate(4 169.8)">
<title>dependencies</title>
<polygon fill="white" stroke="transparent" points="-4,4 -4,-169.8 1152,-169.8 1152,4 -4,4"/>
<text text-anchor="middle" x="574" y="-8.2" font-family="sans-serif" font-size="14.00">dependencies</text>
<g id="clust1" class="cluster">
<title>cluster_MovieModule</title>
<polygon fill="none" stroke="black" stroke-dasharray="1,5" points="8,-32.8 8,-157.8 1140,-157.8 1140,-32.8 8,-32.8"/>
</g>
<g id="clust3" class="cluster">
<title>cluster_MovieModule_imports</title>
<polygon fill="none" stroke="black" points="458,-40.8 458,-92.8 1132,-92.8 1132,-40.8 458,-40.8"/>
</g>
<g id="clust6" class="cluster">
<title>cluster_MovieModule_providers</title>
<polygon fill="none" stroke="black" points="16,-40.8 16,-92.8 450,-92.8 450,-40.8 16,-40.8"/>
</g>
<!-- HistoryDBModule -->
<g id="node1" class="node">
<title>HistoryDBModule</title>
<polygon fill="#8dd3c7" stroke="black" points="1123.5,-84.8 1120.5,-88.8 1099.5,-88.8 1096.5,-84.8 1002.5,-84.8 1002.5,-48.8 1123.5,-48.8 1123.5,-84.8"/>
<text text-anchor="middle" x="1063" y="-62.6" font-family="Times,serif" font-size="14.00">HistoryDBModule</text>
</g>
<!-- MovieModule -->
<g id="node6" class="node">
<title>MovieModule</title>
<polygon fill="#8dd3c7" stroke="black" points="653.1,-149.8 650.1,-153.8 629.1,-153.8 626.1,-149.8 556.9,-149.8 556.9,-113.8 653.1,-113.8 653.1,-149.8"/>
<text text-anchor="middle" x="605" y="-127.6" font-family="Times,serif" font-size="14.00">MovieModule</text>
</g>
<!-- HistoryDBModule&#45;&gt;MovieModule -->
<g id="edge1" class="edge">
<title>HistoryDBModule&#45;&gt;MovieModule</title>
<path fill="none" stroke="black" d="M1063,-85.09C1063,-107.01 1063,-140.8 1063,-140.8 1063,-140.8 663.15,-140.8 663.15,-140.8"/>
<polygon fill="black" stroke="black" points="663.15,-137.3 653.15,-140.8 663.15,-144.3 663.15,-137.3"/>
</g>
<!-- MovieDBModule -->
<g id="node2" class="node">
<title>MovieDBModule</title>
<polygon fill="#8dd3c7" stroke="black" points="984.55,-84.8 981.55,-88.8 960.55,-88.8 957.55,-84.8 869.45,-84.8 869.45,-48.8 984.55,-48.8 984.55,-84.8"/>
<text text-anchor="middle" x="927" y="-62.6" font-family="Times,serif" font-size="14.00">MovieDBModule</text>
</g>
<!-- MovieDBModule&#45;&gt;MovieModule -->
<g id="edge2" class="edge">
<title>MovieDBModule&#45;&gt;MovieModule</title>
<path fill="none" stroke="black" d="M927,-84.91C927,-104.14 927,-131.8 927,-131.8 927,-131.8 663.21,-131.8 663.21,-131.8"/>
<polygon fill="black" stroke="black" points="663.21,-128.3 653.21,-131.8 663.21,-135.3 663.21,-128.3"/>
</g>
<!-- UserDBModule -->
<g id="node3" class="node">
<title>UserDBModule</title>
<polygon fill="#8dd3c7" stroke="black" points="851.94,-84.8 848.94,-88.8 827.94,-88.8 824.94,-84.8 746.06,-84.8 746.06,-48.8 851.94,-48.8 851.94,-84.8"/>
<text text-anchor="middle" x="799" y="-62.6" font-family="Times,serif" font-size="14.00">UserDBModule</text>
</g>
<!-- UserDBModule&#45;&gt;MovieModule -->
<g id="edge3" class="edge">
<title>UserDBModule&#45;&gt;MovieModule</title>
<path fill="none" stroke="black" d="M799,-84.83C799,-101.2 799,-122.8 799,-122.8 799,-122.8 663.45,-122.8 663.45,-122.8"/>
<polygon fill="black" stroke="black" points="663.45,-119.3 653.45,-122.8 663.45,-126.3 663.45,-119.3"/>
</g>
<!-- VoteDBModule -->
<g id="node4" class="node">
<title>VoteDBModule</title>
<polygon fill="#8dd3c7" stroke="black" points="728.21,-84.8 725.21,-88.8 704.21,-88.8 701.21,-84.8 621.79,-84.8 621.79,-48.8 728.21,-48.8 728.21,-84.8"/>
<text text-anchor="middle" x="675" y="-62.6" font-family="Times,serif" font-size="14.00">VoteDBModule</text>
</g>
<!-- VoteDBModule&#45;&gt;MovieModule -->
<g id="edge4" class="edge">
<title>VoteDBModule&#45;&gt;MovieModule</title>
<path fill="none" stroke="black" d="M637.47,-84.91C637.47,-84.91 637.47,-103.79 637.47,-103.79"/>
<polygon fill="black" stroke="black" points="633.97,-103.79 637.47,-113.79 640.97,-103.79 633.97,-103.79"/>
</g>
<!-- WatchListDBModule -->
<g id="node5" class="node">
<title>WatchListDBModule</title>
<polygon fill="#8dd3c7" stroke="black" points="603.81,-84.8 600.81,-88.8 579.81,-88.8 576.81,-84.8 466.19,-84.8 466.19,-48.8 603.81,-48.8 603.81,-84.8"/>
<text text-anchor="middle" x="535" y="-62.6" font-family="Times,serif" font-size="14.00">WatchListDBModule</text>
</g>
<!-- WatchListDBModule&#45;&gt;MovieModule -->
<g id="edge5" class="edge">
<title>WatchListDBModule&#45;&gt;MovieModule</title>
<path fill="none" stroke="black" d="M580.3,-84.91C580.3,-84.91 580.3,-103.79 580.3,-103.79"/>
<polygon fill="black" stroke="black" points="576.8,-103.79 580.3,-113.79 583.8,-103.79 576.8,-103.79"/>
</g>
<!-- MovieService -->
<g id="node7" class="node">
<title>MovieService</title>
<ellipse fill="#fdb462" stroke="black" cx="377" cy="-66.8" rx="65.41" ry="18"/>
<text text-anchor="middle" x="377" y="-62.6" font-family="Times,serif" font-size="14.00">MovieService</text>
</g>
<!-- MovieService&#45;&gt;MovieModule -->
<g id="edge6" class="edge">
<title>MovieService&#45;&gt;MovieModule</title>
<path fill="none" stroke="black" d="M377,-84.83C377,-101.2 377,-122.8 377,-122.8 377,-122.8 546.93,-122.8 546.93,-122.8"/>
<polygon fill="black" stroke="black" points="546.93,-126.3 556.93,-122.8 546.93,-119.3 546.93,-126.3"/>
</g>
<!-- PrismaService -->
<g id="node8" class="node">
<title>PrismaService</title>
<ellipse fill="#fdb462" stroke="black" cx="227" cy="-66.8" rx="66.64" ry="18"/>
<text text-anchor="middle" x="227" y="-62.6" font-family="Times,serif" font-size="14.00">PrismaService</text>
</g>
<!-- PrismaService&#45;&gt;MovieModule -->
<g id="edge7" class="edge">
<title>PrismaService&#45;&gt;MovieModule</title>
<path fill="none" stroke="black" d="M227,-84.91C227,-104.14 227,-131.8 227,-131.8 227,-131.8 546.74,-131.8 546.74,-131.8"/>
<polygon fill="black" stroke="black" points="546.74,-135.3 556.74,-131.8 546.74,-128.3 546.74,-135.3"/>
</g>
<!-- VoteService -->
<g id="node9" class="node">
<title>VoteService</title>
<ellipse fill="#fdb462" stroke="black" cx="83" cy="-66.8" rx="58.53" ry="18"/>
<text text-anchor="middle" x="83" y="-62.6" font-family="Times,serif" font-size="14.00">VoteService</text>
</g>
<!-- VoteService&#45;&gt;MovieModule -->
<g id="edge8" class="edge">
<title>VoteService&#45;&gt;MovieModule</title>
<path fill="none" stroke="black" d="M83,-85.09C83,-107.01 83,-140.8 83,-140.8 83,-140.8 546.83,-140.8 546.83,-140.8"/>
<polygon fill="black" stroke="black" points="546.83,-144.3 556.83,-140.8 546.83,-137.3 546.83,-144.3"/>
</g>
</g>
</svg>
