<?xml version="1.0" encoding="UTF-8" standalone="no"?>
<!DOCTYPE svg PUBLIC "-//W3C//DTD SVG 1.1//EN"
 "http://www.w3.org/Graphics/SVG/1.1/DTD/svg11.dtd">
<!-- Generated by graphviz version 5.0.0 (20220707.1540)
 -->
<!-- Title: dependencies Pages: 1 -->
<svg width="576pt" height="174pt"
 viewBox="0.00 0.00 576.00 173.80" xmlns="http://www.w3.org/2000/svg" xmlns:xlink="http://www.w3.org/1999/xlink">
<g id="graph0" class="graph" transform="scale(1 1) rotate(0) translate(4 169.8)">
<title>dependencies</title>
<polygon fill="white" stroke="transparent" points="-4,4 -4,-169.8 572,-169.8 572,4 -4,4"/>
<text text-anchor="middle" x="284" y="-8.2" font-family="sans-serif" font-size="14.00">dependencies</text>
<g id="clust1" class="cluster">
<title>cluster_AppModule</title>
<polygon fill="none" stroke="black" stroke-dasharray="1,5" points="8,-32.8 8,-157.8 560,-157.8 560,-32.8 8,-32.8"/>
</g>
<g id="clust3" class="cluster">
<title>cluster_AppModule_imports</title>
<polygon fill="none" stroke="black" points="16,-40.8 16,-92.8 552,-92.8 552,-40.8 16,-40.8"/>
</g>
<!-- AuthModule -->
<g id="node1" class="node">
<title>AuthModule</title>
<polygon fill="#8dd3c7" stroke="black" points="543.55,-84.8 540.55,-88.8 519.55,-88.8 516.55,-84.8 456.45,-84.8 456.45,-48.8 543.55,-48.8 543.55,-84.8"/>
<text text-anchor="middle" x="500" y="-62.6" font-family="Times,serif" font-size="14.00">AuthModule</text>
</g>
<!-- AppModule -->
<g id="node6" class="node">
<title>AppModule</title>
<polygon fill="#8dd3c7" stroke="black" points="321.66,-149.8 318.66,-153.8 297.66,-153.8 294.66,-149.8 238.34,-149.8 238.34,-113.8 321.66,-113.8 321.66,-149.8"/>
<text text-anchor="middle" x="280" y="-127.6" font-family="Times,serif" font-size="14.00">AppModule</text>
</g>
<!-- AuthModule&#45;&gt;AppModule -->
<g id="edge1" class="edge">
<title>AuthModule&#45;&gt;AppModule</title>
<path fill="none" stroke="black" d="M500,-85.08C500,-106.12 500,-137.8 500,-137.8 500,-137.8 331.9,-137.8 331.9,-137.8"/>
<polygon fill="black" stroke="black" points="331.9,-134.3 321.9,-137.8 331.9,-141.3 331.9,-134.3"/>
</g>
<!-- EventModule -->
<g id="node2" class="node">
<title>EventModule</title>
<polygon fill="#8dd3c7" stroke="black" points="438.21,-84.8 435.21,-88.8 414.21,-88.8 411.21,-84.8 345.79,-84.8 345.79,-48.8 438.21,-48.8 438.21,-84.8"/>
<text text-anchor="middle" x="392" y="-62.6" font-family="Times,serif" font-size="14.00">EventModule</text>
</g>
<!-- EventModule&#45;&gt;AppModule -->
<g id="edge2" class="edge">
<title>EventModule&#45;&gt;AppModule</title>
<path fill="none" stroke="black" d="M392,-84.82C392,-102.17 392,-125.8 392,-125.8 392,-125.8 331.7,-125.8 331.7,-125.8"/>
<polygon fill="black" stroke="black" points="331.7,-122.3 321.7,-125.8 331.7,-129.3 331.7,-122.3"/>
</g>
<!-- MovieModule -->
<g id="node3" class="node">
<title>MovieModule</title>
<polygon fill="#8dd3c7" stroke="black" points="328.1,-84.8 325.1,-88.8 304.1,-88.8 301.1,-84.8 231.9,-84.8 231.9,-48.8 328.1,-48.8 328.1,-84.8"/>
<text text-anchor="middle" x="280" y="-62.6" font-family="Times,serif" font-size="14.00">MovieModule</text>
</g>
<!-- MovieModule&#45;&gt;AppModule -->
<g id="edge3" class="edge">
<title>MovieModule&#45;&gt;AppModule</title>
<path fill="none" stroke="black" d="M280,-84.91C280,-84.91 280,-103.79 280,-103.79"/>
<polygon fill="black" stroke="black" points="276.5,-103.79 280,-113.79 283.5,-103.79 276.5,-103.79"/>
</g>
<!-- UserModule -->
<g id="node4" class="node">
<title>UserModule</title>
<polygon fill="#8dd3c7" stroke="black" points="213.99,-84.8 210.99,-88.8 189.99,-88.8 186.99,-84.8 128.01,-84.8 128.01,-48.8 213.99,-48.8 213.99,-84.8"/>
<text text-anchor="middle" x="171" y="-62.6" font-family="Times,serif" font-size="14.00">UserModule</text>
</g>
<!-- UserModule&#45;&gt;AppModule -->
<g id="edge4" class="edge">
<title>UserModule&#45;&gt;AppModule</title>
<path fill="none" stroke="black" d="M171,-84.82C171,-102.17 171,-125.8 171,-125.8 171,-125.8 228.17,-125.8 228.17,-125.8"/>
<polygon fill="black" stroke="black" points="228.17,-129.3 238.17,-125.8 228.17,-122.3 228.17,-129.3"/>
</g>
<!-- VoteModule -->
<g id="node5" class="node">
<title>VoteModule</title>
<polygon fill="#8dd3c7" stroke="black" points="110.27,-84.8 107.27,-88.8 86.27,-88.8 83.27,-84.8 23.73,-84.8 23.73,-48.8 110.27,-48.8 110.27,-84.8"/>
<text text-anchor="middle" x="67" y="-62.6" font-family="Times,serif" font-size="14.00">VoteModule</text>
</g>
<!-- VoteModule&#45;&gt;AppModule -->
<g id="edge5" class="edge">
<title>VoteModule&#45;&gt;AppModule</title>
<path fill="none" stroke="black" d="M67,-85.08C67,-106.12 67,-137.8 67,-137.8 67,-137.8 228.17,-137.8 228.17,-137.8"/>
<polygon fill="black" stroke="black" points="228.17,-141.3 238.17,-137.8 228.17,-134.3 228.17,-141.3"/>
</g>
</g>
</svg>
