<?xml version="1.0" encoding="UTF-8" standalone="no"?>
<!DOCTYPE svg PUBLIC "-//W3C//DTD SVG 1.1//EN"
 "http://www.w3.org/Graphics/SVG/1.1/DTD/svg11.dtd">
<!-- Generated by graphviz version 5.0.0 (20220707.1540)
 -->
<!-- Title: dependencies Pages: 1 -->
<svg width="372pt" height="247pt"
 viewBox="0.00 0.00 372.00 246.80" xmlns="http://www.w3.org/2000/svg" xmlns:xlink="http://www.w3.org/1999/xlink">
<g id="graph0" class="graph" transform="scale(1 1) rotate(0) translate(4 242.8)">
<title>dependencies</title>
<polygon fill="white" stroke="transparent" points="-4,4 -4,-242.8 368,-242.8 368,4 -4,4"/>
<text text-anchor="middle" x="182" y="-8.2" font-family="sans-serif" font-size="14.00">dependencies</text>
<g id="clust1" class="cluster">
<title>cluster_HistoryDBModule</title>
<polygon fill="none" stroke="black" stroke-dasharray="1,5" points="8,-32.8 8,-230.8 356,-230.8 356,-32.8 8,-32.8"/>
</g>
<g id="clust6" class="cluster">
<title>cluster_HistoryDBModule_providers</title>
<polygon fill="none" stroke="black" points="16,-40.8 16,-92.8 348,-92.8 348,-40.8 16,-40.8"/>
</g>
<g id="clust4" class="cluster">
<title>cluster_HistoryDBModule_exports</title>
<polygon fill="none" stroke="black" points="105,-170.8 105,-222.8 243,-222.8 243,-170.8 105,-170.8"/>
</g>
<!-- HistoryDBService  -->
<g id="node1" class="node">
<title>HistoryDBService </title>
<polygon fill="#fb8072" stroke="black" points="235.43,-214.8 112.57,-214.8 112.57,-178.8 235.43,-178.8 235.43,-214.8"/>
<text text-anchor="middle" x="174" y="-192.6" font-family="Times,serif" font-size="14.00">HistoryDBService </text>
</g>
<!-- HistoryDBModule -->
<g id="node2" class="node">
<title>HistoryDBModule</title>
<polygon fill="#8dd3c7" stroke="black" points="234.5,-149.8 231.5,-153.8 210.5,-153.8 207.5,-149.8 113.5,-149.8 113.5,-113.8 234.5,-113.8 234.5,-149.8"/>
<text text-anchor="middle" x="174" y="-127.6" font-family="Times,serif" font-size="14.00">HistoryDBModule</text>
</g>
<!-- HistoryDBModule&#45;&gt;HistoryDBService  -->
<g id="edge1" class="edge">
<title>HistoryDBModule&#45;&gt;HistoryDBService </title>
<path fill="none" stroke="black" stroke-dasharray="5,2" d="M174,-149.91C174,-149.91 174,-168.79 174,-168.79"/>
<polygon fill="black" stroke="black" points="170.5,-168.79 174,-178.79 177.5,-168.79 170.5,-168.79"/>
</g>
<!-- HistoryDBService -->
<g id="node3" class="node">
<title>HistoryDBService</title>
<ellipse fill="#fdb462" stroke="black" cx="258" cy="-66.8" rx="82.26" ry="18"/>
<text text-anchor="middle" x="258" y="-62.6" font-family="Times,serif" font-size="14.00">HistoryDBService</text>
</g>
<!-- HistoryDBService&#45;&gt;HistoryDBModule -->
<g id="edge2" class="edge">
<title>HistoryDBService&#45;&gt;HistoryDBModule</title>
<path fill="none" stroke="black" d="M205.06,-80.9C205.06,-80.9 205.06,-103.52 205.06,-103.52"/>
<polygon fill="black" stroke="black" points="201.56,-103.52 205.06,-113.52 208.56,-103.52 201.56,-103.52"/>
</g>
<!-- PrismaService -->
<g id="node4" class="node">
<title>PrismaService</title>
<ellipse fill="#fdb462" stroke="black" cx="91" cy="-66.8" rx="66.64" ry="18"/>
<text text-anchor="middle" x="91" y="-62.6" font-family="Times,serif" font-size="14.00">PrismaService</text>
</g>
<!-- PrismaService&#45;&gt;HistoryDBModule -->
<g id="edge3" class="edge">
<title>PrismaService&#45;&gt;HistoryDBModule</title>
<path fill="none" stroke="black" d="M135.66,-80.27C135.66,-80.27 135.66,-103.66 135.66,-103.66"/>
<polygon fill="black" stroke="black" points="132.16,-103.66 135.66,-113.66 139.16,-103.66 132.16,-103.66"/>
</g>
</g>
</svg>
