<?xml version="1.0" encoding="UTF-8" standalone="no"?>
<!DOCTYPE svg PUBLIC "-//W3C//DTD SVG 1.1//EN"
 "http://www.w3.org/Graphics/SVG/1.1/DTD/svg11.dtd">
<!-- Generated by graphviz version 5.0.0 (20220707.1540)
 -->
<!-- Title: dependencies Pages: 1 -->
<svg width="352pt" height="247pt"
 viewBox="0.00 0.00 352.00 246.80" xmlns="http://www.w3.org/2000/svg" xmlns:xlink="http://www.w3.org/1999/xlink">
<g id="graph0" class="graph" transform="scale(1 1) rotate(0) translate(4 242.8)">
<title>dependencies</title>
<polygon fill="white" stroke="transparent" points="-4,4 -4,-242.8 348,-242.8 348,4 -4,4"/>
<text text-anchor="middle" x="172" y="-8.2" font-family="sans-serif" font-size="14.00">dependencies</text>
<g id="clust1" class="cluster">
<title>cluster_VoteDBModule</title>
<polygon fill="none" stroke="black" stroke-dasharray="1,5" points="8,-32.8 8,-230.8 336,-230.8 336,-32.8 8,-32.8"/>
</g>
<g id="clust4" class="cluster">
<title>cluster_VoteDBModule_exports</title>
<polygon fill="none" stroke="black" points="112,-170.8 112,-222.8 236,-222.8 236,-170.8 112,-170.8"/>
</g>
<g id="clust6" class="cluster">
<title>cluster_VoteDBModule_providers</title>
<polygon fill="none" stroke="black" points="16,-40.8 16,-92.8 328,-92.8 328,-40.8 16,-40.8"/>
</g>
<!-- VoteDBService  -->
<g id="node1" class="node">
<title>VoteDBService </title>
<polygon fill="#fb8072" stroke="black" points="228.14,-214.8 119.86,-214.8 119.86,-178.8 228.14,-178.8 228.14,-214.8"/>
<text text-anchor="middle" x="174" y="-192.6" font-family="Times,serif" font-size="14.00">VoteDBService </text>
</g>
<!-- VoteDBModule -->
<g id="node2" class="node">
<title>VoteDBModule</title>
<polygon fill="#8dd3c7" stroke="black" points="227.21,-149.8 224.21,-153.8 203.21,-153.8 200.21,-149.8 120.79,-149.8 120.79,-113.8 227.21,-113.8 227.21,-149.8"/>
<text text-anchor="middle" x="174" y="-127.6" font-family="Times,serif" font-size="14.00">VoteDBModule</text>
</g>
<!-- VoteDBModule&#45;&gt;VoteDBService  -->
<g id="edge1" class="edge">
<title>VoteDBModule&#45;&gt;VoteDBService </title>
<path fill="none" stroke="black" stroke-dasharray="5,2" d="M174,-149.91C174,-149.91 174,-168.79 174,-168.79"/>
<polygon fill="black" stroke="black" points="170.5,-168.79 174,-178.79 177.5,-168.79 170.5,-168.79"/>
</g>
<!-- PrismaService -->
<g id="node3" class="node">
<title>PrismaService</title>
<ellipse fill="#fdb462" stroke="black" cx="253" cy="-66.8" rx="66.64" ry="18"/>
<text text-anchor="middle" x="253" y="-62.6" font-family="Times,serif" font-size="14.00">PrismaService</text>
</g>
<!-- PrismaService&#45;&gt;VoteDBModule -->
<g id="edge2" class="edge">
<title>PrismaService&#45;&gt;VoteDBModule</title>
<path fill="none" stroke="black" d="M206.64,-79.95C206.64,-79.95 206.64,-103.49 206.64,-103.49"/>
<polygon fill="black" stroke="black" points="203.14,-103.49 206.64,-113.49 210.14,-103.49 203.14,-103.49"/>
</g>
<!-- VoteDBService -->
<g id="node4" class="node">
<title>VoteDBService</title>
<ellipse fill="#fdb462" stroke="black" cx="96" cy="-66.8" rx="72.36" ry="18"/>
<text text-anchor="middle" x="96" y="-62.6" font-family="Times,serif" font-size="14.00">VoteDBService</text>
</g>
<!-- VoteDBService&#45;&gt;VoteDBModule -->
<g id="edge3" class="edge">
<title>VoteDBService&#45;&gt;VoteDBModule</title>
<path fill="none" stroke="black" d="M144.54,-80.27C144.54,-80.27 144.54,-103.66 144.54,-103.66"/>
<polygon fill="black" stroke="black" points="141.04,-103.66 144.54,-113.66 148.04,-103.66 141.04,-103.66"/>
</g>
</g>
</svg>
