<?xml version="1.0" encoding="UTF-8" standalone="no"?>
<!DOCTYPE svg PUBLIC "-//W3C//DTD SVG 1.1//EN"
 "http://www.w3.org/Graphics/SVG/1.1/DTD/svg11.dtd">
<!-- Generated by graphviz version 5.0.0 (20220707.1540)
 -->
<!-- Title: dependencies Pages: 1 -->
<svg width="523pt" height="247pt"
 viewBox="0.00 0.00 523.00 246.80" xmlns="http://www.w3.org/2000/svg" xmlns:xlink="http://www.w3.org/1999/xlink">
<g id="graph0" class="graph" transform="scale(1 1) rotate(0) translate(4 242.8)">
<title>dependencies</title>
<polygon fill="white" stroke="transparent" points="-4,4 -4,-242.8 519,-242.8 519,4 -4,4"/>
<text text-anchor="middle" x="257.5" y="-8.2" font-family="sans-serif" font-size="14.00">dependencies</text>
<g id="clust1" class="cluster">
<title>cluster_UserDBModule</title>
<polygon fill="none" stroke="black" stroke-dasharray="1,5" points="8,-32.8 8,-230.8 507,-230.8 507,-32.8 8,-32.8"/>
</g>
<g id="clust6" class="cluster">
<title>cluster_UserDBModule_providers</title>
<polygon fill="none" stroke="black" points="16,-40.8 16,-92.8 499,-92.8 499,-40.8 16,-40.8"/>
</g>
<g id="clust4" class="cluster">
<title>cluster_UserDBModule_exports</title>
<polygon fill="none" stroke="black" points="190,-170.8 190,-222.8 314,-222.8 314,-170.8 190,-170.8"/>
</g>
<!-- UserDBService  -->
<g id="node1" class="node">
<title>UserDBService </title>
<polygon fill="#fb8072" stroke="black" points="305.86,-214.8 198.14,-214.8 198.14,-178.8 305.86,-178.8 305.86,-214.8"/>
<text text-anchor="middle" x="252" y="-192.6" font-family="Times,serif" font-size="14.00">UserDBService </text>
</g>
<!-- UserDBModule -->
<g id="node2" class="node">
<title>UserDBModule</title>
<polygon fill="#8dd3c7" stroke="black" points="304.94,-149.8 301.94,-153.8 280.94,-153.8 277.94,-149.8 199.06,-149.8 199.06,-113.8 304.94,-113.8 304.94,-149.8"/>
<text text-anchor="middle" x="252" y="-127.6" font-family="Times,serif" font-size="14.00">UserDBModule</text>
</g>
<!-- UserDBModule&#45;&gt;UserDBService  -->
<g id="edge1" class="edge">
<title>UserDBModule&#45;&gt;UserDBService </title>
<path fill="none" stroke="black" stroke-dasharray="5,2" d="M252,-149.91C252,-149.91 252,-168.79 252,-168.79"/>
<polygon fill="black" stroke="black" points="248.5,-168.79 252,-178.79 255.5,-168.79 248.5,-168.79"/>
</g>
<!-- PasswordService -->
<g id="node3" class="node">
<title>PasswordService</title>
<ellipse fill="#fdb462" stroke="black" cx="414" cy="-66.8" rx="77.03" ry="18"/>
<text text-anchor="middle" x="414" y="-62.6" font-family="Times,serif" font-size="14.00">PasswordService</text>
</g>
<!-- PasswordService&#45;&gt;UserDBModule -->
<g id="edge2" class="edge">
<title>PasswordService&#45;&gt;UserDBModule</title>
<path fill="none" stroke="black" d="M414,-84.91C414,-104.14 414,-131.8 414,-131.8 414,-131.8 315.04,-131.8 315.04,-131.8"/>
<polygon fill="black" stroke="black" points="315.04,-128.3 305.04,-131.8 315.04,-135.3 315.04,-128.3"/>
</g>
<!-- PrismaService -->
<g id="node4" class="node">
<title>PrismaService</title>
<ellipse fill="#fdb462" stroke="black" cx="252" cy="-66.8" rx="66.64" ry="18"/>
<text text-anchor="middle" x="252" y="-62.6" font-family="Times,serif" font-size="14.00">PrismaService</text>
</g>
<!-- PrismaService&#45;&gt;UserDBModule -->
<g id="edge3" class="edge">
<title>PrismaService&#45;&gt;UserDBModule</title>
<path fill="none" stroke="black" d="M252,-84.91C252,-84.91 252,-103.79 252,-103.79"/>
<polygon fill="black" stroke="black" points="248.5,-103.79 252,-113.79 255.5,-103.79 248.5,-103.79"/>
</g>
<!-- UserDBService -->
<g id="node5" class="node">
<title>UserDBService</title>
<ellipse fill="#fdb462" stroke="black" cx="96" cy="-66.8" rx="71.78" ry="18"/>
<text text-anchor="middle" x="96" y="-62.6" font-family="Times,serif" font-size="14.00">UserDBService</text>
</g>
<!-- UserDBService&#45;&gt;UserDBModule -->
<g id="edge4" class="edge">
<title>UserDBService&#45;&gt;UserDBModule</title>
<path fill="none" stroke="black" d="M96,-84.91C96,-104.14 96,-131.8 96,-131.8 96,-131.8 189.19,-131.8 189.19,-131.8"/>
<polygon fill="black" stroke="black" points="189.19,-135.3 199.19,-131.8 189.19,-128.3 189.19,-135.3"/>
</g>
</g>
</svg>
